<svg width="28" height="28" viewBox="0 0 28 28" fill="none" xmlns="http://www.w3.org/2000/svg">
<path d="M22.1667 22.1667H5.83333V9.33335H22.1667M18.6667 1.16669V3.50002H9.33333V1.16669H7V3.50002H5.83333C4.53833 3.50002 3.5 4.53835 3.5 5.83335V22.1667C3.5 22.7855 3.74583 23.379 4.18342 23.8166C4.621 24.2542 5.21449 24.5 5.83333 24.5H22.1667C22.7855 24.5 23.379 24.2542 23.8166 23.8166C24.2542 23.379 24.5 22.7855 24.5 22.1667V5.83335C24.5 5.21452 24.2542 4.62102 23.8166 4.18344C23.379 3.74585 22.7855 3.50002 22.1667 3.50002H21V1.16669M19.8333 14H14V19.8334H19.8333V14Z" fill="white"/>
</svg>
