<svg width="28" height="28" viewBox="0 0 28 28" fill="none" xmlns="http://www.w3.org/2000/svg">
<path d="M19.8333 14C21.7662 14 23.3333 12.433 23.3333 10.5C23.3333 8.567 21.7662 7 19.8333 7C17.9003 7 16.3333 8.567 16.3333 10.5C16.3333 12.433 17.9003 14 19.8333 14Z" fill="#DCE4E9"/>
<path d="M8.16675 14C10.0997 14 11.6667 12.433 11.6667 10.5C11.6667 8.567 10.0997 7 8.16675 7C6.23375 7 4.66675 8.567 4.66675 10.5C4.66675 12.433 6.23375 14 8.16675 14Z" fill="#DCE4E9"/>
<path fill-rule="evenodd" clip-rule="evenodd" d="M20.4972 21H23.2108C23.9015 21 24.43 20.405 24.2632 19.7353C23.8327 18.0203 22.6893 15.1667 19.8333 15.1667C18.7997 15.1667 17.99 15.54 17.3577 16.1C19.117 17.2398 20.027 19.2383 20.4972 21ZM10.6423 16.1C9.9646 15.4874 9.08014 15.1539 8.16666 15.1667C5.31066 15.1667 4.16732 18.0203 3.73682 19.7353C3.56999 20.405 4.09849 21 4.78916 21H7.50399C7.97416 19.2383 8.88299 17.2398 10.6423 16.1Z" fill="#DCE4E9"/>
<path d="M14.0001 16.3333C18.3272 16.3333 19.4437 20.1845 19.7331 22.1736C19.8264 22.8118 19.3107 23.3333 18.6667 23.3333H9.3334C8.6894 23.3333 8.1749 22.8118 8.26707 22.1736C8.5564 20.1845 9.6729 16.3333 14.0001 16.3333Z" fill="white"/>
<path d="M13.9999 15.1666C16.5772 15.1666 18.6666 13.0773 18.6666 10.5C18.6666 7.92265 16.5772 5.83331 13.9999 5.83331C11.4226 5.83331 9.33325 7.92265 9.33325 10.5C9.33325 13.0773 11.4226 15.1666 13.9999 15.1666Z" fill="white"/>
</svg>
