<svg width="27" height="27" viewBox="0 0 27 27" fill="none" xmlns="http://www.w3.org/2000/svg">
<path fill-rule="evenodd" clip-rule="evenodd" d="M18.375 3.9214e-08C18.0903 3.9214e-08 17.8191 0.0027223 17.5612 0.00816674C14.9788 0.0595001 13.0066 1.74708 12.4256 4.08333C11.5541 4.08489 10.7452 4.09597 9.99892 4.11658C7.59092 4.1825 5.49442 5.02892 3.8955 6.41667H3.87508C2.74225 6.41667 1.75 5.46233 1.75 4.35342C1.75 3.2445 2.74225 2.29017 3.87508 2.29017H3.892C5.08433 2.296 5.25 2.87117 5.25 3.01758C5.25 3.24965 5.34219 3.47221 5.50628 3.6363C5.67038 3.8004 5.89294 3.89258 6.125 3.89258C6.35706 3.89258 6.57962 3.8004 6.74372 3.6363C6.90781 3.47221 7 3.24965 7 3.01758C7 1.56217 5.66708 0.540167 3.87508 0.540167H3.8535C1.82525 0.551833 0 2.22483 0 4.35342C0 5.99608 1.08675 7.36692 2.51475 7.91292C1.29325 9.57017 0.59325 11.6637 0.583917 13.9737C0.583035 14.1857 0.583035 14.3976 0.583917 14.6096C0.59325 16.8863 1.27167 18.9624 2.47742 20.6202C2.20848 21.2186 1.9479 21.8206 1.69575 22.4262C1.26817 23.4517 1.54117 24.6715 2.46808 25.3721C2.72125 25.5634 3.01058 25.7687 3.27192 25.9187C3.5385 26.0715 3.87158 26.2202 4.172 26.3439C5.23133 26.7814 6.40733 26.4139 7.07992 25.5471C7.36342 25.1813 7.70642 24.7322 8.07275 24.2369C8.69147 24.3715 9.33353 24.4481 9.99892 24.4667C10.7794 24.4883 11.6252 24.5 12.5417 24.5C13.4581 24.5 14.3039 24.4883 15.0844 24.4667C15.7322 24.4497 16.377 24.3728 17.0106 24.2369C17.3769 24.7327 17.7199 25.1819 18.0034 25.5471C18.676 26.4139 19.852 26.7808 20.9113 26.3439C21.2199 26.2204 21.5207 26.0782 21.812 25.9181C22.0733 25.7687 22.3621 25.5634 22.6152 25.3721C23.5427 24.6715 23.8152 23.4517 23.3882 22.4262C23.1782 21.9246 22.9098 21.2957 22.6059 20.6202C23.1758 19.8337 23.6242 18.9659 23.9359 18.046C24.1171 18.0592 24.2956 18.0691 24.4714 18.0757C25.7139 18.1201 26.6671 17.1716 26.7557 15.9967C26.7989 15.4303 26.8333 14.6743 26.8333 13.7083C26.8333 12.7423 26.7983 11.9863 26.7557 11.4199C26.6671 10.2445 25.7139 9.29658 24.4714 9.34092C24.1482 9.35258 23.8134 9.3765 23.4733 9.41092C22.6666 7.74842 21.4153 6.37583 19.8333 5.44367C19.8275 3.6995 19.6805 2.50425 19.5242 1.72433C19.4663 1.42368 19.3904 1.1268 19.2967 0.835333C19.259 0.721964 19.2156 0.610596 19.1666 0.501667L19.1619 0.49175L19.1596 0.487667L19.1584 0.485333L19.1578 0.483583C19.0851 0.338228 18.9734 0.215994 18.8351 0.130581C18.6968 0.0451677 18.5375 -4.8609e-05 18.375 3.9214e-08ZM17.7917 8.60417C18.3552 8.60417 18.8125 9.0615 18.8125 9.625V10.2083C18.8125 10.4791 18.7049 10.7387 18.5135 10.9302C18.3221 11.1216 18.0624 11.2292 17.7917 11.2292C17.5209 11.2292 17.2613 11.1216 17.0698 10.9302C16.8784 10.7387 16.7708 10.4791 16.7708 10.2083V9.625C16.7708 9.0615 17.2282 8.60417 17.7917 8.60417ZM11.0559 8.02083C11.288 8.01797 11.5094 7.92304 11.6715 7.75692C11.8335 7.5908 11.923 7.36711 11.9201 7.13504C11.9173 6.90298 11.8223 6.68155 11.6562 6.51948C11.4901 6.35741 11.2664 6.26797 11.0343 6.27083C10.7357 6.27472 10.4489 6.28017 10.1739 6.28717C8.24425 6.33675 6.56192 7.06417 5.35908 8.27342C5.27572 8.35433 5.20931 8.45104 5.16372 8.5579C5.11814 8.66475 5.09428 8.77962 5.09356 8.89579C5.09283 9.01196 5.11524 9.12712 5.15949 9.23453C5.20374 9.34195 5.26894 9.43948 5.35128 9.52144C5.43362 9.60339 5.53146 9.66813 5.63908 9.71187C5.74671 9.75561 5.86197 9.77748 5.97813 9.77621C6.0943 9.77493 6.20905 9.75054 6.31569 9.70445C6.42233 9.65836 6.51873 9.59149 6.59925 9.50775C7.4655 8.63683 8.71092 8.07567 10.2194 8.03658C10.4858 8.02958 10.7646 8.02433 11.0559 8.02083Z" fill="white"/>
</svg>
