<svg width="23" height="21" viewBox="0 0 23 21" fill="none" xmlns="http://www.w3.org/2000/svg">
<path fill-rule="evenodd" clip-rule="evenodd" d="M3.20833 3.78986C2.35743 3.78986 1.54138 4.12788 0.939699 4.72955C0.33802 5.33123 0 6.14729 0 6.99819V17.4982C0 18.3491 0.33802 19.1651 0.939699 19.7668C1.54138 20.3685 2.35743 20.7065 3.20833 20.7065H19.5417C20.3926 20.7065 21.2086 20.3685 21.8103 19.7668C22.412 19.1651 22.75 18.3491 22.75 17.4982V6.99819C22.75 6.14729 22.412 5.33123 21.8103 4.72955C21.2086 4.12788 20.3926 3.78986 19.5417 3.78986H3.20833ZM16.625 10.7899C16.2382 10.7899 15.8673 10.9435 15.5938 11.217C15.3203 11.4905 15.1667 11.8614 15.1667 12.2482C15.1667 12.635 15.3203 13.0059 15.5938 13.2794C15.8673 13.5529 16.2382 13.7065 16.625 13.7065C17.0118 13.7065 17.3827 13.5529 17.6562 13.2794C17.9297 13.0059 18.0833 12.635 18.0833 12.2482C18.0833 11.8614 17.9297 11.4905 17.6562 11.217C17.3827 10.9435 17.0118 10.7899 16.625 10.7899Z" fill="white"/>
<path d="M16.6075 0.0786842C16.9529 -0.0133676 17.3149 -0.0248194 17.6654 0.0452127C18.016 0.115245 18.3458 0.264888 18.6293 0.482592C18.9129 0.700297 19.1426 0.980241 19.3008 1.30082C19.459 1.6214 19.5414 1.97404 19.5417 2.33152H7.875L16.6075 0.0786842Z" fill="white"/>
</svg>
