<svg width="28" height="28" viewBox="0 0 28 28" fill="none" xmlns="http://www.w3.org/2000/svg">
<g clip-path="url(#clip0_316_538)">
<path d="M22.1667 23.3334H5.83333C5.21449 23.3334 4.621 23.0875 4.18342 22.6499C3.74583 22.2124 3.5 21.6189 3.5 21V10.5C3.5 9.88118 3.74583 9.28769 4.18342 8.8501C4.621 8.41252 5.21449 8.16669 5.83333 8.16669H22.1667C22.7855 8.16669 23.379 8.41252 23.8166 8.8501C24.2542 9.28769 24.5 9.88118 24.5 10.5V21C24.5 21.6189 24.2542 22.2124 23.8166 22.6499C23.379 23.0875 22.7855 23.3334 22.1667 23.3334Z" fill="white" stroke="#40484C" stroke-width="2.5"/>
<path d="M19.2501 16.3334C19.0954 16.3334 18.947 16.2719 18.8376 16.1625C18.7282 16.0531 18.6667 15.9047 18.6667 15.75C18.6667 15.5953 18.7282 15.4469 18.8376 15.3375C18.947 15.2281 19.0954 15.1667 19.2501 15.1667C19.4048 15.1667 19.5532 15.2281 19.6626 15.3375C19.772 15.4469 19.8334 15.5953 19.8334 15.75C19.8334 15.9047 19.772 16.0531 19.6626 16.1625C19.5532 16.2719 19.4048 16.3334 19.2501 16.3334Z" fill="white" stroke="#40484C" stroke-width="2.5" stroke-linecap="round" stroke-linejoin="round"/>
<path d="M21 8.16668V6.53685C20.9999 6.17927 20.9176 5.82649 20.7595 5.50577C20.6014 5.18504 20.3717 4.90495 20.0881 4.68711C19.8045 4.46928 19.4747 4.31953 19.1241 4.24943C18.7734 4.17934 18.4114 4.19077 18.0658 4.28285L5.2325 7.70468C4.73556 7.83711 4.2963 8.13 3.98299 8.53783C3.66968 8.94566 3.49989 9.44557 3.5 9.95985V10.5" fill="white"/>
<path d="M21 8.16668V6.53685C20.9999 6.17927 20.9176 5.82649 20.7595 5.50577C20.6014 5.18504 20.3717 4.90495 20.0881 4.68711C19.8045 4.46928 19.4747 4.31953 19.1241 4.24943C18.7734 4.17934 18.4114 4.19077 18.0658 4.28285L5.2325 7.70468C4.73556 7.83711 4.2963 8.13 3.98299 8.53783C3.66968 8.94566 3.49989 9.44557 3.5 9.95985V10.5" stroke="#40484C" stroke-width="2.5"/>
<path d="M22.1667 23.3334H5.83333C5.21449 23.3334 4.621 23.0875 4.18342 22.6499C3.74583 22.2124 3.5 21.6189 3.5 21V10.5C3.5 9.88118 3.74583 9.28769 4.18342 8.8501C4.621 8.41252 5.21449 8.16669 5.83333 8.16669H22.1667C22.7855 8.16669 23.379 8.41252 23.8166 8.8501C24.2542 9.28769 24.5 9.88118 24.5 10.5V21C24.5 21.6189 24.2542 22.2124 23.8166 22.6499C23.379 23.0875 22.7855 23.3334 22.1667 23.3334Z" stroke="#40484C" stroke-width="2.5"/>
<path d="M19.2501 16.3334C19.0954 16.3334 18.947 16.2719 18.8376 16.1625C18.7282 16.0531 18.6667 15.9047 18.6667 15.75C18.6667 15.5953 18.7282 15.4469 18.8376 15.3375C18.947 15.2281 19.0954 15.1667 19.2501 15.1667C19.4048 15.1667 19.5532 15.2281 19.6626 15.3375C19.772 15.4469 19.8334 15.5953 19.8334 15.75C19.8334 15.9047 19.772 16.0531 19.6626 16.1625C19.5532 16.2719 19.4048 16.3334 19.2501 16.3334Z" fill="#40484C" stroke="#40484C" stroke-width="2.5" stroke-linecap="round" stroke-linejoin="round"/>
<path d="M21 8.16668V6.53685C20.9999 6.17927 20.9176 5.82649 20.7595 5.50577C20.6014 5.18504 20.3717 4.90495 20.0881 4.68711C19.8045 4.46928 19.4747 4.31953 19.1241 4.24943C18.7734 4.17934 18.4114 4.19077 18.0658 4.28285L5.2325 7.70468C4.73556 7.83711 4.2963 8.13 3.98299 8.53783C3.66968 8.94566 3.49989 9.44557 3.5 9.95985V10.5" stroke="#40484C" stroke-width="2.5"/>
</g>
<defs>
<clipPath id="clip0_316_538">
<rect width="28" height="28" fill="white"/>
</clipPath>
</defs>
</svg>
