<svg width="28" height="28" viewBox="0 0 28 28" fill="none" xmlns="http://www.w3.org/2000/svg">
<path d="M22.1667 22.1666H5.83333V9.33329H22.1667M18.6667 1.16663V3.49996H9.33333V1.16663H7V3.49996H5.83333C4.53833 3.49996 3.5 4.53829 3.5 5.83329V22.1666C3.5 22.7855 3.74583 23.379 4.18342 23.8165C4.621 24.2541 5.21449 24.5 5.83333 24.5H22.1667C22.7855 24.5 23.379 24.2541 23.8166 23.8165C24.2542 23.379 24.5 22.7855 24.5 22.1666V5.83329C24.5 5.21445 24.2542 4.62096 23.8166 4.18338C23.379 3.74579 22.7855 3.49996 22.1667 3.49996H21V1.16663M19.8333 14H14V19.8333H19.8333V14Z" fill="#40484C"/>
</svg>
