<svg width="30" height="30" viewBox="0 0 30 30" fill="none" xmlns="http://www.w3.org/2000/svg">
<path d="M18.9014 5.91797C19.6454 5.95836 20.2036 6.29076 20.5752 6.57422C20.9253 6.84136 21.2848 7.20667 21.5781 7.5L22.5 8.42188C22.7933 8.7152 23.1586 9.07467 23.4258 9.4248C23.7281 9.82116 24.0859 10.4299 24.0859 11.25C24.0859 12.0701 23.7281 12.6788 23.4258 13.0752C23.1836 13.3926 22.8597 13.7167 22.583 13.9932L22.5781 14L13.0557 23.5225C12.936 23.6421 12.6258 23.9764 12.2168 24.208C11.8077 24.4396 11.3613 24.5332 11.1973 24.5742L7.54395 25.4883C7.42872 25.5171 7.12072 25.5989 6.83496 25.627C6.52434 25.6573 5.69044 25.6846 5.00293 24.9971C4.31543 24.3096 4.34266 23.4757 4.37305 23.165C4.40106 22.8793 4.48291 22.5713 4.51172 22.4561L5.42578 18.8027L5.53711 18.3848C5.59476 18.2016 5.67619 17.9878 5.79199 17.7832L5.88379 17.6348C6.10444 17.2998 6.37284 17.049 6.47754 16.9443L15.9219 7.5C16.2152 7.20667 16.5747 6.84136 16.9248 6.57422C17.3212 6.27185 17.9299 5.91406 18.75 5.91406L18.9014 5.91797Z" stroke="#33363F" stroke-width="4"/>
<path d="M15.625 9.375L19.375 6.875L23.125 10.625L20.625 14.375L15.625 9.375Z" fill="#33363F"/>
</svg>
