<svg width="28" height="28" viewBox="0 0 28 28" fill="none" xmlns="http://www.w3.org/2000/svg">
<path d="M14 12.8334C15.933 12.8334 17.5 11.2664 17.5 9.33337C17.5 7.40038 15.933 5.83337 14 5.83337C12.067 5.83337 10.5 7.40038 10.5 9.33337C10.5 11.2664 12.067 12.8334 14 12.8334Z" stroke="#40484C" stroke-width="2.33333" stroke-linecap="round"/>
<path d="M17.8127 9.33339C17.9648 9.06588 18.1683 8.8311 18.4115 8.64257C18.6547 8.45403 18.9327 8.31546 19.2297 8.23483C19.5267 8.15421 19.8367 8.13312 20.1418 8.17278C20.447 8.21245 20.7413 8.31208 21.0078 8.46594C21.2743 8.61981 21.5077 8.82486 21.6946 9.06931C21.8815 9.31375 22.0182 9.59275 22.0969 9.89025C22.1755 10.1877 22.1946 10.4979 22.1529 10.8027C22.1112 11.1076 22.0096 11.4013 21.854 11.6667C21.5424 12.1983 21.0332 12.585 20.4375 12.7425C19.8418 12.9 19.208 12.8154 18.6744 12.5074C18.1408 12.1993 17.7507 11.6926 17.5893 11.098C17.4278 10.5034 17.5081 9.86903 17.8127 9.33339ZM6.146 9.33339C6.29809 9.06588 6.50159 8.8311 6.74479 8.64257C6.98799 8.45403 7.26608 8.31546 7.56305 8.23483C7.86002 8.15421 8.17 8.13312 8.47516 8.17278C8.78031 8.21245 9.0746 8.31208 9.3411 8.46594C9.60759 8.61981 9.84101 8.82486 10.0279 9.06931C10.2149 9.31375 10.3516 9.59275 10.4302 9.89025C10.5089 10.1877 10.5279 10.4979 10.4862 10.8027C10.4445 11.1076 10.343 11.4013 10.1873 11.6667C9.87571 12.1983 9.3665 12.585 8.77081 12.7425C8.17512 12.9 7.54131 12.8154 7.00771 12.5074C6.47411 12.1993 6.08402 11.6926 5.92258 11.098C5.76115 10.5034 5.84146 9.86903 6.146 9.33339Z" stroke="#40484C" stroke-width="2.33333"/>
<path d="M19.6956 21.0001L18.5523 21.2299L18.7389 22.1667H19.6956V21.0001ZM17.2433 17.1629L16.5386 16.2331L15.1888 17.2586L16.6284 18.1534L17.2433 17.1629ZM23.1793 19.8334H19.6968L19.6956 22.1667H23.1793V19.8334ZM23.0743 20.1111C23.0619 20.0722 23.0599 20.0308 23.0684 19.9909C23.0747 19.9494 23.092 19.9103 23.1186 19.8777C23.1559 19.8311 23.1874 19.8334 23.1793 19.8334V22.1667C24.5163 22.1667 25.8311 20.9067 25.2734 19.3317L23.0743 20.1111ZM19.8333 17.5001C21.7489 17.5001 22.6368 18.8779 23.0743 20.1111L25.2734 19.3317C24.7309 17.8022 23.2726 15.1667 19.8333 15.1667V17.5001ZM17.9503 18.0916C18.3983 17.7509 18.9956 17.5001 19.8333 17.5001V15.1667C18.4776 15.1667 17.3868 15.5891 16.5386 16.2331L17.9503 18.0916ZM16.6284 18.1534C17.8406 18.9071 18.3481 20.2207 18.5511 21.2299L20.8378 20.7702C20.5846 19.5067 19.8764 17.4254 17.8604 16.1712L16.6284 18.1534ZM10.7566 17.1617L11.3714 18.1534L12.8111 17.2586L11.4613 16.2331L10.7566 17.1617ZM8.30428 21.0001V22.1667H9.25978L9.44878 21.2299L8.30428 21.0001ZM8.16661 17.5001C9.00428 17.5001 9.60161 17.7509 10.0496 18.0916L11.4613 16.2331C10.6131 15.5891 9.52228 15.1667 8.16661 15.1667V17.5001ZM4.92561 20.1111C5.36311 18.8779 6.25095 17.5001 8.16661 17.5001V15.1667C4.72728 15.1667 3.26895 17.8022 2.72645 19.3317L4.92561 20.1111ZM4.82061 19.8334C4.81361 19.8334 4.84395 19.8311 4.88245 19.8777C4.90863 19.9104 4.92556 19.9495 4.93145 19.9909C4.94004 20.0308 4.93803 20.0722 4.92561 20.1111L2.72645 19.3317C2.16995 20.9067 3.48478 22.1667 4.82178 22.1667L4.82061 19.8334ZM8.30428 19.8334H4.82061L4.82178 22.1667H8.30428V19.8334ZM9.44761 21.2299C9.65178 20.2207 10.1593 18.9071 11.3726 18.1534L10.1383 16.1701C8.12228 17.4242 7.41411 19.5067 7.15978 20.7691L9.44761 21.2299Z" fill="#40484C"/>
<path d="M14 16.3334C18.1673 16.3334 19.3573 19.3095 19.6968 21.0105C19.824 21.6417 19.3118 22.1667 18.6667 22.1667H9.33332C8.68932 22.1667 8.17599 21.6417 8.30316 21.0105C8.64266 19.3084 9.83266 16.3334 14 16.3334Z" stroke="#40484C" stroke-width="2.33333" stroke-linecap="round"/>
</svg>
