<svg width="18" height="22" viewBox="0 0 18 22" fill="none" xmlns="http://www.w3.org/2000/svg">
<path fill-rule="evenodd" clip-rule="evenodd" d="M13.272 9.27197C13.272 10.3328 12.8505 11.3503 12.1004 12.1004C11.3503 12.8505 10.3328 13.272 9.27197 13.272C8.21111 13.272 7.19369 12.8505 6.44355 12.1004C5.6934 11.3503 5.27197 10.3328 5.27197 9.27197C5.27197 8.21111 5.6934 7.19369 6.44355 6.44355C7.19369 5.6934 8.21111 5.27197 9.27197 5.27197C10.3328 5.27197 11.3503 5.6934 12.1004 6.44355C12.8505 7.19369 13.272 8.21111 13.272 9.27197ZM11.272 9.27197C11.272 9.80241 11.0613 10.3111 10.6862 10.6862C10.3111 11.0613 9.80241 11.272 9.27197 11.272C8.74154 11.272 8.23283 11.0613 7.85776 10.6862C7.48269 10.3111 7.27197 9.80241 7.27197 9.27197C7.27197 8.74154 7.48269 8.23283 7.85776 7.85776C8.23283 7.48269 8.74154 7.27197 9.27197 7.27197C9.80241 7.27197 10.3111 7.48269 10.6862 7.85776C11.0613 8.23283 11.272 8.74154 11.272 9.27197Z" fill="black" fill-opacity="0.8"/>
<path fill-rule="evenodd" clip-rule="evenodd" d="M2.794 15.518C1.50484 14.2905 0.608609 12.7084 0.218639 10.9716C-0.17133 9.2348 -0.0375212 7.42137 0.603146 5.76062C1.24381 4.09987 2.36256 2.6664 3.81792 1.64148C5.27328 0.616558 6.99988 0.0462178 8.77938 0.00258335C10.5589 -0.0410511 12.3114 0.44398 13.8152 1.39634C15.3191 2.3487 16.5067 3.72562 17.228 5.35297C17.9493 6.98032 18.1718 8.78501 17.8675 10.5388C17.5631 12.2927 16.7455 13.9168 15.518 15.206L9.31201 21.724L2.794 15.518ZM14.07 13.827L9.243 18.897L4.173 14.07C3.17037 13.1153 2.47334 11.8848 2.17005 10.5339C1.86676 9.18314 1.97084 7.77273 2.46912 6.48107C2.9674 5.1894 3.8375 4.0745 4.96941 3.27734C6.10131 2.48017 7.44418 2.03655 8.8282 2.00257C10.2122 1.96859 11.5752 2.34577 12.7449 3.08643C13.9146 3.82708 14.8383 4.89794 15.3994 6.16359C15.9605 7.42924 16.1336 8.83285 15.897 10.1969C15.6604 11.561 15.0246 12.8242 14.07 13.827Z" fill="black" fill-opacity="0.8"/>
</svg>
