<svg width="216" height="239" viewBox="0 0 216 239" fill="none" xmlns="http://www.w3.org/2000/svg">
<g clip-path="url(#clip0_228_437)">
<mask id="mask0_228_437" style="mask-type:luminance" maskUnits="userSpaceOnUse" x="0" y="0" width="216" height="239">
<path d="M216 0H0V239H216V0Z" fill="white"/>
</mask>
<g mask="url(#mask0_228_437)">
<path d="M146.927 148.065C264.701 226.746 226.424 256.065 73.4634 229.362C33.497 222.385 0 192.964 0 148.065C0 103.166 32.8907 66.7678 73.4634 66.7678C114.036 66.7678 109.553 123.097 146.927 148.065Z" fill="#3F3D56"/>
<path opacity="0.1" d="M157.456 224.716C183.153 224.716 203.983 222.855 203.983 220.56C203.983 218.264 183.153 216.403 157.456 216.403C131.76 216.403 110.93 218.264 110.93 220.56C110.93 222.855 131.76 224.716 157.456 224.716Z" fill="black"/>
<path opacity="0.1" d="M65.6953 87.7101C79.3149 87.7101 90.3558 85.8491 90.3558 83.5535C90.3558 81.2579 79.3149 79.397 65.6953 79.397C52.0757 79.397 41.0349 81.2579 41.0349 83.5535C41.0349 85.8491 52.0757 87.7101 65.6953 87.7101Z" fill="black"/>
<path opacity="0.1" d="M64.4029 93.7858C53.8218 93.7837 43.4561 96.7704 34.5029 102.401C25.5498 108.031 18.3746 116.076 13.8062 125.605C19.0576 119.813 25.4677 115.185 32.6224 112.02C39.7771 108.855 47.5171 107.225 55.3424 107.233C86.3121 107.233 111.419 132.302 111.419 163.224C111.432 171.59 109.559 179.851 105.939 187.396C115.314 177.105 120.5 163.688 120.48 149.777C120.48 118.855 95.3726 93.7858 64.4029 93.7858Z" fill="black"/>
<path opacity="0.3" d="M111.419 162.98C111.432 171.346 109.559 179.607 105.939 187.151C100.688 192.944 94.2775 197.572 87.1229 200.737C79.9682 203.901 72.2281 205.532 64.4029 205.523C33.4332 205.523 8.32587 180.455 8.32587 149.532C8.31322 141.167 10.1863 132.905 13.8062 125.361C19.0576 119.568 25.4677 114.94 32.6224 111.776C39.7771 108.611 47.5171 106.98 55.3424 106.989C86.3121 106.989 111.419 132.058 111.419 162.98Z" fill="#106681"/>
<path d="M64.4029 205.798C33.33 205.798 8.05025 180.558 8.05025 149.532C8.02767 141.124 9.9105 132.82 13.5577 125.242C18.1486 115.666 25.3591 107.582 34.3562 101.924C43.3533 96.2654 53.7699 93.2641 64.4029 93.2662C95.4759 93.2662 120.755 118.507 120.755 149.532C120.756 156.922 119.299 164.238 116.467 171.065C113.635 177.892 109.484 184.095 104.251 189.32C99.0183 194.545 92.8059 198.689 85.9687 201.516C79.1315 204.344 71.8034 205.799 64.4029 205.798ZM64.4029 93.8164C43.0519 93.8164 23.2889 106.245 14.0547 125.48C10.4432 132.984 8.57883 141.207 8.60132 149.532C8.60132 180.254 33.6338 205.248 64.4029 205.248C71.731 205.249 78.9874 203.808 85.7578 201.008C92.5282 198.208 98.6799 194.104 103.862 188.931C109.043 183.757 113.154 177.615 115.958 170.855C118.762 164.095 120.205 156.849 120.204 149.532C120.204 118.81 95.172 93.8164 64.4029 93.8164Z" fill="white"/>
<path d="M192.697 206.509C188.625 211.828 189.09 219.015 189.09 219.015C189.09 219.015 196.159 217.58 200.232 212.262C204.305 206.943 203.839 199.756 203.839 199.756C203.839 199.756 196.77 201.191 192.697 206.509Z" fill="#D0CDE1"/>
<path d="M195.366 207.704C194.576 214.352 189.226 219.184 189.226 219.184C189.226 219.184 185.157 213.236 185.947 206.588C186.738 199.939 192.088 195.108 192.088 195.108C192.088 195.108 196.157 201.056 195.366 207.704Z" fill="#106681"/>
<path d="M47.6202 51.9659C60.3997 51.9659 70.7595 41.622 70.7595 28.8621C70.7595 16.1023 60.3997 5.75842 47.6202 5.75842C34.8408 5.75842 24.481 16.1023 24.481 28.8621C24.481 41.622 34.8408 51.9659 47.6202 51.9659Z" fill="#FF6584"/>
<path d="M97.788 52.4181C97.7992 75.4957 84.0626 83.5592 67.1144 83.5674C66.7207 83.5676 66.3289 83.5634 65.939 83.5548C65.1535 83.5382 64.3762 83.5029 63.6071 83.4487C48.3102 82.3747 36.4209 73.91 36.4105 52.4478C36.3997 30.2372 64.8164 2.19395 66.9476 0.120417C66.9476 0.120417 66.9494 0.120417 66.9513 0.118532C67.0323 0.039506 67.0737 0 67.0737 0C67.0737 0 97.7767 29.3423 97.788 52.4181Z" fill="#106681"/>
<path d="M65.9957 80.038L77.2122 64.3741L65.9683 81.7569L65.939 83.5548C65.1535 83.5383 64.3762 83.5029 63.6071 83.4488L64.8051 60.3611L64.7956 60.1825L64.8163 60.1486L64.9302 57.967L53.6411 40.5518L64.9633 56.3327L64.9918 56.7953L65.8968 39.3517L56.2311 21.3546L66.0139 36.2861L66.9476 0.120479L66.9512 0.00012207L66.9513 0.118594L66.807 28.639L76.4133 17.3277L66.7667 31.0951L66.5201 46.7142L75.4917 31.7209L66.4854 49.0105L66.3484 57.6955L79.3686 36.8251L66.299 60.7253L65.9957 80.038Z" fill="#3F3D56"/>
<path d="M157.87 65.6402C154.928 60.6781 149.109 60.4468 149.109 60.4468C149.109 60.4468 143.439 59.7228 139.802 67.2803C136.411 74.3244 131.732 81.1257 139.048 82.7747L140.37 78.6678L141.188 83.0804C142.23 83.1552 143.275 83.1731 144.319 83.1338C152.154 82.8813 159.616 83.2077 159.375 80.4005C159.056 76.6686 160.7 70.4148 157.87 65.6402Z" fill="#2F2E41"/>
<path d="M144.894 112.203L145.65 119.757L163.178 117.869L163.556 112.203H144.894Z" fill="#A0616A"/>
<path d="M143.002 116.358L142.498 120.764C142.498 120.764 136.698 128.822 137.202 142.671C137.706 156.521 129.258 218.088 135.31 218.591C141.363 219.095 152.207 219.85 152.712 217.962C153.216 216.073 154.225 144.434 154.225 144.434C154.225 144.434 156.873 218.051 161.412 218.303C165.952 218.555 181.21 219.058 181.21 217.17C181.21 215.281 167.843 130.962 167.843 130.962L165.7 123.912L163.556 115.225C163.556 115.225 150.19 117.491 146.533 116.609C142.876 115.728 143.002 116.358 143.002 116.358Z" fill="#2F2E41"/>
<path d="M149.055 81.4825C153.512 81.4825 157.125 77.8748 157.125 73.4246C157.125 68.9744 153.512 65.3668 149.055 65.3668C144.598 65.3668 140.985 68.9744 140.985 73.4246C140.985 77.8748 144.598 81.4825 149.055 81.4825Z" fill="#A0616A"/>
<path d="M163.178 86.7704L161.646 88.9963L160.665 90.4203L159.017 92.8137L150.82 93.4432C150.82 93.4432 148.829 92.8011 146.532 91.8632C145.683 91.5157 144.792 91.1279 143.944 90.7162C140.657 89.1222 138.019 87.177 140.985 85.889C141.511 85.6632 142.017 85.3919 142.497 85.0782C142.933 84.7936 143.339 84.4654 143.708 84.0987C144.468 83.3386 145.031 82.4048 145.347 81.3784C145.664 80.3521 145.724 79.2641 145.524 78.2089L153.468 77.0758C153.238 79.0877 155.241 81.2822 157.487 83.0738C158.225 83.6643 158.99 84.2095 159.71 84.6904C161.598 85.952 163.178 86.7704 163.178 86.7704Z" fill="#A0616A"/>
<path d="M152.333 89.1625C152.333 89.1625 144.579 87.8406 142.813 85.0707C142.813 85.0707 135.184 86.0149 135.815 90.0439C136.445 94.0728 142.75 116.106 142.75 116.106C142.75 116.106 158.512 113.084 164.313 115.35L167.843 87.274C167.843 87.274 166.582 84.5041 164.187 85.2595C161.791 86.015 160.845 85.3225 160.845 85.3225C160.845 85.3225 158.134 89.1625 152.333 89.1625Z" fill="#D0CDE1"/>
<path d="M159.395 133.355C159.395 133.355 164.817 139.398 161.791 140.405C158.764 141.412 155.108 136.376 155.108 136.376L159.395 133.355Z" fill="#A0616A"/>
<path d="M161.16 133.858C161.16 133.858 156.747 136.88 158.386 138.894C160.025 140.909 165.7 137.132 165.7 136.376C165.7 135.621 161.16 133.858 161.16 133.858Z" fill="#A0616A"/>
<path d="M150.316 117.491L146.659 118.12L144.263 100.368C144.402 97.1473 144.295 93.9208 143.944 90.7162C143.677 88.5759 143.231 86.5186 142.497 85.0783C142.933 84.7936 143.339 84.4655 143.708 84.0988C144.586 85.4875 146.188 88.4286 146.532 91.8632C146.622 92.7233 146.622 93.5904 146.533 94.4505C145.903 100.368 146.029 101.501 146.029 101.501L150.316 117.491Z" fill="#2F2E41"/>
<path d="M141.867 86.1409C141.867 86.1409 135.941 84.5041 135.437 88.0294C134.932 91.5547 135.563 100.62 136.95 104.019C138.337 107.419 143.128 118.498 143.128 118.498C143.128 118.498 151.829 129.578 152.207 132.221C152.586 134.865 154.477 137.635 154.477 137.635L160.53 133.732L148.677 113.714L143.507 99.8643C143.507 99.8643 145.65 87.274 141.867 86.1409Z" fill="#D0CDE1"/>
<path d="M165.069 86.6445L167.843 87.274C167.843 87.274 170.365 98.1017 169.357 103.893C168.348 109.685 168.222 111.699 168.222 111.699L167.339 128.193C167.339 128.193 167.591 138.768 165.826 137.132C164.061 135.495 160.53 134.74 160.53 134.74C160.53 134.74 160.908 130.081 162.295 128.948C162.295 128.948 163.934 120.261 162.926 116.484C161.917 112.706 165.069 86.6445 165.069 86.6445Z" fill="#D0CDE1"/>
<path d="M166.078 98.8571L162.863 117.428L160.908 116.609L164.313 98.8571L160.665 90.4203L157.487 83.0739C158.225 83.6643 158.99 84.2095 159.71 84.6905L161.646 88.9963L166.078 98.8571Z" fill="#2F2E41"/>
<path d="M156.569 65.1619L150.82 62.1552L142.881 63.3852L141.239 70.6287L145.328 70.4716L146.47 67.8104V70.4279L148.357 70.3552L149.452 66.1185L150.136 70.6287L156.843 70.4919L156.569 65.1619Z" fill="#2F2E41"/>
<path d="M145.213 220.56C147.376 220.56 149.131 219.903 149.131 219.093C149.131 218.283 147.376 217.626 145.213 217.626C143.049 217.626 141.295 218.283 141.295 219.093C141.295 219.903 143.049 220.56 145.213 220.56Z" fill="#2F2E41"/>
<path d="M171.659 220.56C173.823 220.56 175.577 219.903 175.577 219.093C175.577 218.283 173.823 217.626 171.659 217.626C169.496 217.626 167.741 218.283 167.741 219.093C167.741 219.903 169.496 220.56 171.659 220.56Z" fill="#2F2E41"/>
<path d="M72.6162 178.492C68.6085 181.096 63.9899 182.612 59.2163 182.889C54.4427 183.167 49.6792 182.197 45.3957 180.075L46.0021 178.84C51.1653 181.372 57.0175 182.146 62.6627 181.042C68.308 179.938 73.4354 177.017 77.26 172.726C81.0847 168.436 83.3958 163.012 83.8396 157.286C84.2835 151.559 82.8357 145.845 79.7177 141.018C76.5998 136.191 71.9835 132.517 66.5756 130.559C61.1677 128.601 55.266 128.466 49.7741 130.175C44.2821 131.885 39.5024 135.344 36.1666 140.023C32.8308 144.703 31.1227 150.345 31.3038 156.085L29.9267 156.128C29.7742 151.297 30.8923 146.511 33.1696 142.247C35.447 137.982 38.804 134.388 42.906 131.823C47.0081 129.258 51.7119 127.811 56.5486 127.626C61.3853 127.442 66.1859 128.526 70.472 130.772C74.7581 133.017 78.3799 136.345 80.9764 140.424C83.5729 144.502 85.0534 149.189 85.2703 154.017C85.4872 158.845 84.433 163.645 82.2128 167.94C79.9925 172.234 76.6837 175.872 72.6162 178.492Z" fill="white"/>
<path d="M60.1542 153.616C56.0803 154.517 50.6585 155.065 46.7079 154.492L51.6672 158.263L37.7834 167.204L38.5301 168.36L52.414 159.419L53.8097 165.487C54.9164 161.657 57.6533 156.952 60.1542 153.616Z" fill="white"/>
</g>
</g>
<defs>
<clipPath id="clip0_228_437">
<rect width="216" height="239" fill="white"/>
</clipPath>
</defs>
</svg>
