<svg width="28" height="28" viewBox="0 0 28 28" fill="none" xmlns="http://www.w3.org/2000/svg">
<g clip-path="url(#clip0_231_200)">
<path fill-rule="evenodd" clip-rule="evenodd" d="M17.5292 3.07996C17.6727 3.07568 17.8209 3.07218 17.9737 3.06946L17.9842 3.12196C18.109 3.74729 18.2467 4.80896 18.2467 6.45513C18.2467 6.58929 18.2457 6.71977 18.2438 6.84654C18.2408 7.06402 18.2986 7.27803 18.4107 7.46439C18.5229 7.65075 18.6849 7.80205 18.8785 7.90121C20.394 8.67763 21.5606 9.96854 22.2151 11.5943C22.312 11.8347 22.4861 12.036 22.71 12.1664C22.9339 12.2969 23.1949 12.349 23.4518 12.3147C23.9222 12.2498 24.3954 12.2069 24.8699 12.1864C24.8889 12.1853 24.908 12.188 24.9259 12.1945C24.9375 12.1984 24.9484 12.2052 24.9585 12.215C24.979 12.2336 25.0081 12.275 25.014 12.3509C25.0519 12.8508 25.084 13.538 25.084 14.4334C25.084 15.3294 25.0519 16.0171 25.014 16.5165C25.0081 16.5929 24.979 16.6343 24.9585 16.6524C24.9489 16.6612 24.9379 16.6683 24.9259 16.6734C24.9079 16.6797 24.8889 16.6823 24.8699 16.681C24.5098 16.6663 24.1504 16.6377 23.7925 16.5952C23.5131 16.5629 23.2315 16.6326 22.9994 16.7914C22.7674 16.9503 22.6005 17.1876 22.5295 17.4597C22.2443 18.5523 21.7473 19.5235 21.0829 20.3309C20.9436 20.5003 20.8549 20.7055 20.827 20.923C20.799 21.1405 20.8329 21.3614 20.9248 21.5605C21.2543 22.2775 21.5708 23.0003 21.8739 23.7288C21.9596 23.9347 21.8896 24.1231 21.7665 24.2165C21.539 24.388 21.3384 24.5274 21.196 24.6085C21.0502 24.6925 20.8204 24.798 20.5503 24.91C20.408 24.9684 20.212 24.934 20.0778 24.7607C19.6449 24.203 19.221 23.6385 18.8061 23.0673C18.6658 22.8739 18.4695 22.7282 18.2438 22.65C18.018 22.5717 17.7737 22.5647 17.5438 22.6298C16.9313 22.8025 16.2721 22.9051 15.5739 22.9238C14.8323 22.9448 14.0228 22.9555 13.1455 22.9559C12.2685 22.9555 11.459 22.9448 10.717 22.9238C10.0509 22.9075 9.38943 22.8085 8.74771 22.6292C8.51782 22.5641 8.27348 22.5711 8.04772 22.6494C7.82196 22.7276 7.62566 22.8733 7.48537 23.0667C7.07059 23.6382 6.64664 24.2029 6.21371 24.7607C6.07896 24.934 5.88296 24.9684 5.74121 24.91C5.52034 24.8216 5.30456 24.7209 5.09487 24.6085C4.95254 24.5268 4.75187 24.388 4.52437 24.2165C4.40129 24.1231 4.33187 23.9347 4.41704 23.7288C4.66321 23.1385 4.99396 22.3679 5.36612 21.5605C5.458 21.3614 5.4919 21.1405 5.46394 20.923C5.43598 20.7055 5.34729 20.5003 5.20804 20.3309C4.13646 19.0283 3.49537 17.294 3.48721 15.3066C3.48637 15.1048 3.48637 14.903 3.48721 14.7011C3.49654 12.3987 4.35229 10.4154 5.79196 9.04921C5.81529 9.02938 5.83785 9.00838 5.85962 8.98621C7.10796 7.83296 8.78212 7.13646 10.717 7.08338C11.459 7.06277 12.2685 7.05227 13.1455 7.05188H13.1764C13.4636 7.0519 13.7407 6.94597 13.9547 6.75438C14.1687 6.5628 14.3044 6.29901 14.336 6.01354C14.5227 4.32538 15.7757 3.12721 17.5298 3.07938M4.58621 6.99646C6.18804 5.64138 8.26937 4.81538 10.654 4.75063C11.1499 4.73702 11.6731 4.72749 12.2238 4.72204C12.8964 2.43246 14.8984 0.816626 17.4668 0.747209C17.8876 0.735543 18.3465 0.729515 18.8435 0.729126C19.0602 0.729133 19.2726 0.789497 19.4569 0.90345C19.6412 1.0174 19.7902 1.18044 19.887 1.37429L18.8429 1.89579C19.1899 1.72025 19.5379 1.54681 19.887 1.37546L19.8882 1.37663L19.8894 1.37896L19.8923 1.38479L19.8981 1.39704C19.9155 1.43342 19.9317 1.47038 19.9465 1.50788C19.973 1.57049 20.0039 1.6541 20.0393 1.75871C20.1093 1.96813 20.1921 2.26446 20.2726 2.66463C20.4243 3.42238 20.5643 4.55579 20.5789 6.18213C22.0415 7.08491 23.2274 8.37291 24.0065 9.90496C24.2718 9.88124 24.5319 9.86471 24.787 9.85538C26.1795 9.80521 27.2417 10.8715 27.3409 12.1747C27.3829 12.7365 27.4167 13.4825 27.4167 14.434C27.4167 15.3854 27.3829 16.1315 27.3409 16.6932C27.2417 17.9964 26.18 19.0621 24.787 19.0125C24.6878 19.009 24.5886 19.0044 24.4895 18.9985C24.2015 19.7865 23.8129 20.5339 23.3334 21.2222C23.6017 21.823 23.8397 22.3795 24.0275 22.831C24.4965 23.9557 24.1996 25.302 23.1735 26.0779C22.9227 26.2675 22.6281 26.4775 22.3551 26.6338C22.0763 26.793 21.7368 26.9447 21.4399 27.0666C20.2674 27.5508 18.9718 27.1425 18.2339 26.191C17.9448 25.8188 17.6597 25.4435 17.3787 25.0652C16.8046 25.1774 16.2222 25.2414 15.6375 25.2565C14.807 25.2787 13.9762 25.2896 13.1455 25.2892C12.2471 25.2892 11.4188 25.2775 10.6535 25.2565C10.0687 25.2416 9.4863 25.1778 8.91221 25.0658C8.59721 25.4887 8.30437 25.8725 8.05704 26.191C7.31971 27.1419 6.02412 27.5502 4.85104 27.0666C4.5373 26.9414 4.23163 26.7969 3.93579 26.6338C3.652 26.4652 3.37869 26.2796 3.11737 26.0779C2.09187 25.302 1.79437 23.9557 2.26337 22.831C2.45179 22.3795 2.68921 21.823 2.95754 21.2222C1.80487 19.572 1.16262 17.535 1.15387 15.316C1.15302 15.1079 1.15302 14.8998 1.15387 14.6918C1.16262 12.513 1.78387 10.5233 2.87646 8.90513C1.55112 8.24771 0.583374 6.89671 0.583374 5.29604C0.583374 3.02571 2.52937 1.25879 4.68071 1.25879C6.53571 1.25879 8.04479 2.33621 8.04479 3.99113C8.04479 4.30055 7.92188 4.59729 7.70308 4.81608C7.48429 5.03488 7.18754 5.15779 6.87812 5.15779C6.56871 5.15779 6.27196 5.03488 6.05317 4.81608C5.83437 4.59729 5.71146 4.30055 5.71146 3.99113C5.71146 3.97946 5.70971 3.91354 5.59887 3.82488C5.48337 3.73213 5.20979 3.59154 4.68071 3.59154C3.73571 3.59213 2.91671 4.39596 2.91671 5.29663C2.91671 6.16696 3.68146 6.94629 4.58562 6.99763M10.671 10.5997C10.8225 10.5773 10.9682 10.5253 11.0996 10.4466C11.2311 10.3679 11.3457 10.264 11.4371 10.141C11.5284 10.018 11.5946 9.87821 11.6319 9.72961C11.6692 9.58101 11.6769 9.42652 11.6545 9.27496C11.6321 9.1234 11.58 8.97773 11.5013 8.84628C11.4226 8.71483 11.3188 8.60017 11.1958 8.50884C11.0728 8.41752 10.933 8.35132 10.7844 8.31402C10.6358 8.27672 10.4813 8.26905 10.3297 8.29146C9.15429 8.46529 8.08679 8.90163 7.18204 9.55263C6.93087 9.7334 6.7618 10.0066 6.71203 10.312C6.66225 10.6174 6.73585 10.9301 6.91662 11.1813C7.0974 11.4325 7.37055 11.6015 7.67599 11.6513C7.98142 11.7011 8.29412 11.6275 8.54529 11.4467C9.14029 11.018 9.85662 10.7205 10.671 10.5997ZM18.4561 10.1155C18.7655 10.1155 19.0623 10.2385 19.2811 10.4573C19.4999 10.676 19.6228 10.9728 19.6228 11.2822V11.8521C19.6228 12.1615 19.4999 12.4583 19.2811 12.6771C19.0623 12.8959 18.7655 13.0188 18.4561 13.0188C18.1467 13.0188 17.85 12.8959 17.6312 12.6771C17.4124 12.4583 17.2895 12.1615 17.2895 11.8521V11.2822C17.2895 10.9728 17.4124 10.676 17.6312 10.4573C17.85 10.2385 18.1467 10.1155 18.4561 10.1155Z" fill="#40484C"/>
</g>
<defs>
<clipPath id="clip0_231_200">
<rect width="28" height="28" fill="white"/>
</clipPath>
</defs>
</svg>
