<svg width="26" height="26" viewBox="0 0 26 26" fill="none" xmlns="http://www.w3.org/2000/svg">
<path fill-rule="evenodd" clip-rule="evenodd" d="M17.6667 9.49992C17.6667 10.7376 17.175 11.9246 16.2999 12.7998C15.4247 13.6749 14.2377 14.1666 13 14.1666C11.7624 14.1666 10.5754 13.6749 9.70021 12.7998C8.82504 11.9246 8.33337 10.7376 8.33337 9.49992C8.33337 8.26224 8.82504 7.07526 9.70021 6.20009C10.5754 5.32492 11.7624 4.83325 13 4.83325C14.2377 4.83325 15.4247 5.32492 16.2999 6.20009C17.175 7.07526 17.6667 8.26224 17.6667 9.49992ZM15.3334 9.49992C15.3334 10.1188 15.0875 10.7122 14.65 11.1498C14.2124 11.5874 13.6189 11.8333 13 11.8333C12.3812 11.8333 11.7877 11.5874 11.3501 11.1498C10.9125 10.7122 10.6667 10.1188 10.6667 9.49992C10.6667 8.88108 10.9125 8.28759 11.3501 7.85C11.7877 7.41242 12.3812 7.16659 13 7.16659C13.6189 7.16659 14.2124 7.41242 14.65 7.85C15.0875 8.28759 15.3334 8.88108 15.3334 9.49992Z" fill="#40484C"/>
<path fill-rule="evenodd" clip-rule="evenodd" d="M13 0.166626C5.91252 0.166626 0.166687 5.91246 0.166687 13C0.166687 20.0875 5.91252 25.8333 13 25.8333C20.0875 25.8333 25.8334 20.0875 25.8334 13C25.8334 5.91246 20.0875 0.166626 13 0.166626ZM2.50002 13C2.50002 15.4383 3.33185 17.683 4.72602 19.4656C5.70537 18.1801 6.96853 17.1383 8.41693 16.4215C9.86533 15.7047 11.4598 15.3322 13.0759 15.3333C14.6711 15.3314 16.2458 15.6939 17.6797 16.3931C19.1136 17.0922 20.3689 18.1096 21.3499 19.3676C22.3607 18.0418 23.0413 16.4944 23.3354 14.8533C23.6295 13.2122 23.5285 11.5247 23.0409 9.93044C22.5533 8.33613 21.6931 6.88085 20.5314 5.685C19.3697 4.48916 17.94 3.58713 16.3605 3.05355C14.781 2.51998 13.0971 2.37019 11.4482 2.61659C9.7993 2.863 8.23278 3.4985 6.87825 4.47052C5.52373 5.44254 4.42013 6.72314 3.65879 8.20635C2.89744 9.68957 2.50023 11.3328 2.50002 13ZM13 23.5C10.5896 23.5039 8.25185 22.6746 6.38269 21.1526C7.13496 20.0753 8.13641 19.1958 9.30177 18.5888C10.4671 17.9819 11.7619 17.6655 13.0759 17.6666C14.3734 17.6655 15.6525 17.974 16.8068 18.5665C17.9612 19.159 18.9575 20.0184 19.713 21.0733C17.8294 22.6448 15.4531 23.5038 13 23.5Z" fill="#40484C"/>
</svg>
