<svg width="28" height="28" viewBox="0 0 28 28" fill="none" xmlns="http://www.w3.org/2000/svg">
<path d="M22.1667 23.3333H5.83333C5.21449 23.3333 4.621 23.0875 4.18342 22.6499C3.74583 22.2123 3.5 21.6188 3.5 21V10.5C3.5 9.88112 3.74583 9.28763 4.18342 8.85004C4.621 8.41246 5.21449 8.16663 5.83333 8.16663H22.1667C22.7855 8.16663 23.379 8.41246 23.8166 8.85004C24.2542 9.28763 24.5 9.88112 24.5 10.5V21C24.5 21.6188 24.2542 22.2123 23.8166 22.6499C23.379 23.0875 22.7855 23.3333 22.1667 23.3333Z" stroke="#40484C" stroke-width="2.5"/>
<path d="M19.25 16.3333C19.0952 16.3333 18.9469 16.2718 18.8375 16.1624C18.7281 16.053 18.6666 15.9047 18.6666 15.75C18.6666 15.5952 18.7281 15.4469 18.8375 15.3375C18.9469 15.2281 19.0952 15.1666 19.25 15.1666C19.4047 15.1666 19.553 15.2281 19.6624 15.3375C19.7718 15.4469 19.8333 15.5952 19.8333 15.75C19.8333 15.9047 19.7718 16.053 19.6624 16.1624C19.553 16.2718 19.4047 16.3333 19.25 16.3333Z" fill="#40484C" stroke="#40484C" stroke-width="2.5" stroke-linecap="round" stroke-linejoin="round"/>
<path d="M21 8.16662V6.53679C20.9999 6.17921 20.9176 5.82643 20.7595 5.50571C20.6014 5.18498 20.3717 4.90488 20.0881 4.68705C19.8045 4.46921 19.4747 4.31947 19.1241 4.24937C18.7734 4.17928 18.4114 4.19071 18.0658 4.28279L5.2325 7.70462C4.73556 7.83705 4.2963 8.12994 3.98299 8.53777C3.66968 8.94559 3.49989 9.4455 3.5 9.95979V10.5" stroke="#40484C" stroke-width="2.5"/>
</svg>
