<svg width="78" height="62" viewBox="0 0 78 62" fill="none" xmlns="http://www.w3.org/2000/svg">
<path d="M38 0.5C46.863 0.5 56.7538 4.49481 64.4316 10.835C71.9741 17.0634 77.3065 25.491 77.4941 34.5088C73.4513 34.6414 70.1194 36.3572 67.1426 38.834C64.0561 41.4021 61.314 44.821 58.54 48.1816C52.9459 54.9588 47.2064 61.5 38 61.5C28.8017 61.5 23.315 54.9678 18.1035 48.1953C15.5202 44.8382 12.9977 41.4171 10.1465 38.8477C7.40211 36.3745 4.31232 34.651 0.507812 34.5098C0.67806 25.4743 5.53443 17.0444 12.5811 10.8242C19.7556 4.49113 29.1415 0.5 38 0.5Z" fill="#4D616B" stroke="#171C1F"/>
</svg>
